# xmcd CD database file
#
# Track frame offsets:
#	150
#	14687
#	30545
#	41385
#	64212
#	84420
#	109860
#	123537
#	138740
#	152145
#	166812
#	185022
#	204452
#	228967
#
# Disc length: 3264 seconds
#
# Revision: 0
# Processed by: cddbd v1.5PL3 Copyright (c) Steve Scherf et al.
# Submitted via: CDex 1.51
#
DISCID=bd0cbe0e
DTITLE=Tom Bastedo - King Rockahula
DYEAR=1999
DGENRE=Blues
TTITLE0=Shake Your Boogie
TTITLE1=Ain't Doin' Too Bad
TTITLE2=Quiet Whiskey
TTITLE3=That Will Never Do
TTITLE4=If the Shoe Fits, Wear It
TTITLE5=Kansas City
TTITLE6=Down, Boy, Down
TTITLE7=Sittin' on It All the Time
TTITLE8=Cleo's Back
TTITLE9=My Money's Green
TTITLE10=Big Boss Man
TTITLE11=Cadillac Baby
TTITLE12=Crosscut Saw
TTITLE13=Rock This House
EXTD=YEAR: 1999
EXTT0=
EXTT1=
EXTT2=
EXTT3=
EXTT4=
EXTT5=
EXTT6=
EXTT7=
EXTT8=
EXTT9=
EXTT10=
EXTT11=
EXTT12=
EXTT13=
PLAYORDER=
